Coordinates
version=1
nRows=14
nColumns=46
inDegrees=yes

Units are S.I. units (second, meters, Newtons, ...)
Angles are in degrees.

endheader
time	pelvis_tilt	pelvis_list	pelvis_rotation	pelvis_tx	pelvis_ty	pelvis_tz	bb_angle	bb_tx	bb_ty	bb_tz	hip_flexion_r	hip_adduction_r	hip_rotation_r	knee_angle_r	knee_angle_r_beta	ankle_angle_r	subtalar_angle_r	mtp_angle_r	crank_angle_r	hip_flexion_l	hip_adduction_l	hip_rotation_l	knee_angle_l	knee_angle_l_beta	ankle_angle_l	subtalar_angle_l	mtp_angle_l	crank_angle_l	lumbar_extension	lumbar_bending	lumbar_rotation	arm_flex_r	arm_add_r	arm_rot_r	elbow_flex_r	pro_sup_r	wrist_flex_r	wrist_dev_r	arm_flex_l	arm_add_l	arm_rot_l	elbow_flex_l	pro_sup_l	wrist_flex_l	wrist_dev_l
      2.50000000	    -32.22883351	      1.04808631	     31.61375308	      0.43023229	      1.05359604	     -0.18243114	      0.00000000	      0.50000000	      0.00000000	      0.25000000	     39.74650331	    -15.25096226	    -13.42751688	     56.00682007	      0.97750341	    -29.11794906	    -19.25811642	      0.00000000	      0.00000000	     79.35677952	      9.47695360	      5.09775240	     90.06812247	      1.57198529	     29.10993052	     15.23839410	      0.00000000	      0.00000000	    -49.36438511	     -4.10344909	    -22.28141067	     30.40995025	     -2.63281788	      5.40913250	     68.14335016	     50.25995463	      0.00000000	      0.00000000	     47.28326669	     -9.36731881	     13.05923680	     89.02527859	     49.50851761	      0.00000000	      0.00000000
      2.50500000	    -32.09618984	      0.99600165	     31.27540808	      0.43107919	      1.05239882	     -0.18186440	      0.00000000	      0.50000000	      0.00000000	      0.25000000	     39.87381223	    -15.03857385	    -13.56767427	     57.29943782	      1.00006385	    -28.17296378	    -19.45293299	      0.00000000	      0.00000000	     78.88632512	      9.16613495	      5.06019445	     89.06703056	      1.55451294	     29.09656686	     15.19283511	      0.00000000	      0.00000000	    -49.33827406	     -4.18781561	    -22.13464653	     30.37676128	     -2.51721657	      5.52451592	     68.21681560	     50.30561355	      0.00000000	      0.00000000	     46.94119793	     -9.45779094	     12.89163234	     89.41428349	     49.55844199	      0.00000000	      0.00000000
      2.51000000	    -32.02037284	      0.98957892	     30.84699658	      0.43211186	      1.05111502	     -0.18142685	      0.00000000	      0.50000000	      0.00000000	      0.25000000	     40.04346950	    -14.85853883	    -13.59916570	     58.64044306	      1.02346881	    -26.86521040	    -19.07853591	      0.00000000	      0.00000000	     78.39644108	      8.92503205	      5.02608031	     88.05510298	      1.53685147	     29.08767686	     14.73214359	      0.00000000	      0.00000000	    -49.36330906	     -4.30619592	    -22.33584335	     30.45125773	     -2.15282854	      5.96131362	     68.33709216	     50.47597923	      0.00000000	      0.00000000	     45.97711271	     -9.79922538	     11.77776947	     91.08792643	     49.71932462	      0.00000000	      0.00000000
      2.51500000	    -31.87747720	      0.97053970	     30.33715817	      0.43329726	      1.04986077	     -0.18088677	      0.00000000	      0.50000000	      0.00000000	      0.25000000	     40.15224878	    -14.59195557	    -13.62817751	     59.97169510	      1.04670354	    -25.75906586	    -19.18506186	      0.00000000	      0.00000000	     77.81368084	      8.55851347	      5.04498755	     87.05947885	      1.51947455	     29.08388934	     14.45937120	      0.00000000	      0.00000000	    -49.37157863	     -4.57299926	    -22.05685335	     30.42948640	     -2.07578531	      6.08140040	     68.22454269	     50.49381806	      0.00000000	      0.00000000	     45.56198612	     -9.73504915	     11.56417034	     91.41052660	     49.75153611	      0.00000000	      0.00000000
      2.52000000	    -31.79368254	      1.00808645	     29.80828186	      0.43442406	      1.04857910	     -0.18048700	      0.00000000	      0.50000000	      0.00000000	      0.25000000	     40.31824146	    -14.42941425	    -13.55238064	     61.39273689	      1.07150540	    -24.13864784	    -18.53846419	      0.00000000	      0.00000000	     77.22487841	      8.21484366	      4.99054184	     86.03001712	      1.50150705	     29.08102673	     14.15308804	      0.00000000	      0.00000000	    -49.36273773	     -4.88515581	    -21.98051266	     30.43988568	     -1.90365415	      6.31453481	     68.14697367	     50.55110958	      0.00000000	      0.00000000	     44.89215887	     -9.60888168	     10.89015277	     92.18239227	     49.80896398	      0.00000000	      0.00000000
      2.52500000	    -31.64029038	      0.98369688	     29.28507169	      0.43562530	      1.04739252	     -0.18016425	      0.00000000	      0.50000000	      0.00000000	      0.25000000	     40.38220644	    -14.19181514	    -13.58801777	     62.74990397	      1.09519243	    -22.56539941	    -18.14531309	      0.00000000	      0.00000000	     76.55564834	      7.85733722	      5.01828424	     84.97509119	      1.48309512	     29.08070594	     13.85251506	      0.00000000	      0.00000000	    -49.37900890	     -5.07102137	    -21.94932592	     30.58071425	     -1.67471236	      6.68985886	     67.94928712	     50.61790907	      0.00000000	      0.00000000	     44.07623365	     -9.57349464	     10.14718271	     92.99686116	     49.86281718	      0.00000000	      0.00000000
      2.53000000	    -31.38695836	      0.85355270	     28.73165717	      0.43688050	      1.04637535	     -0.17964220	      0.00000000	      0.50000000	      0.00000000	      0.25000000	     40.37289649	    -13.77005427	    -13.69646829	     64.02215950	      1.11739748	    -21.62065151	    -18.50435375	      0.00000000	      0.00000000	     75.81701723	      7.36077731	      5.16115095	     83.89218211	      1.46419479	     29.07031224	     13.74086975	      0.00000000	      0.00000000	    -49.39244313	     -5.21434934	    -21.51840920	     30.54523058	     -1.56069175	      6.81798425	     67.88398916	     50.62879915	      0.00000000	      0.00000000	     43.76383349	     -9.57846159	     10.00867775	     93.10902707	     49.86935056	      0.00000000	      0.00000000
      2.53500000	    -31.30086918	      1.00617379	     28.02306908	      0.43832654	      1.04523796	     -0.17934657	      0.00000000	      0.50000000	      0.00000000	      0.25000000	     40.50710818	    -13.65882950	    -13.43608908	     65.60151298	      1.14496240	    -19.02271970	    -17.15256394	      0.00000000	      0.00000000	     75.05114851	      6.87099680	      4.84795514	     82.81632241	      1.44541750	     29.05485797	     13.31405328	      0.00000000	      0.00000000	    -49.45669564	     -5.75089900	    -21.50023599	     30.62912993	     -1.49420139	      7.26693477	     67.66441335	     50.69233704	      0.00000000	      0.00000000	     42.89040048	     -9.27755603	      9.02772206	     94.13434796	     49.93557326	      0.00000000	      0.00000000
      2.54000000	    -31.12529628	      0.94201419	     27.45697568	      0.43948882	      1.04420182	     -0.17931180	      0.00000000	      0.50000000	      0.00000000	      0.25000000	     40.56339131	    -13.45208415	    -13.47766401	     67.10913050	      1.17127529	    -16.88629348	    -16.36429244	      0.00000000	      0.00000000	     74.31043124	      6.41241222	      4.76743186	     81.70062910	      1.42594498	     29.00164989	     12.97444063	      0.00000000	      0.00000000	    -49.45074508	     -5.87326974	    -21.53973556	     30.92047775	     -1.38171909	      7.97879382	     67.28287208	     50.77965517	      0.00000000	      0.00000000	     41.93781664	     -9.30199144	      8.06994925	     95.12679421	     49.98886519	      0.00000000	      0.00000000
      2.54500000	    -30.92717218	      0.78210579	     26.80673904	      0.44067236	      1.04318712	     -0.17908154	      0.00000000	      0.50000000	      0.00000000	      0.25000000	     40.65741349	    -13.06699671	    -13.47880833	     68.57343067	      1.19683214	    -15.00895889	    -15.80563937	      0.00000000	      0.00000000	     73.59192727	      5.83447903	      4.83145648	     80.62258448	      1.40712955	     28.92542397	     12.90394459	      0.00000000	      0.00000000	    -49.41023116	     -6.09410527	    -21.19389428	     31.03188750	     -1.42186838	      8.33179875	     67.07033274	     50.81379703	      0.00000000	      0.00000000	     41.39686414	     -9.24388915	      7.68069589	     95.61295337	     50.02522337	      0.00000000	      0.00000000
      2.55000000	    -30.72457859	      0.59456152	     26.18993465	      0.44175924	      1.04222149	     -0.17894604	      0.00000000	      0.50000000	      0.00000000	      0.25000000	     40.75131371	    -12.68053397	    -13.50431268	     70.05471005	      1.22268535	    -12.99995043	    -15.20269121	      0.00000000	      0.00000000	     72.89321386	      5.25124474	      4.85828955	     79.52042192	      1.38789319	     28.79435793	     12.80285977	      0.00000000	      0.00000000	    -49.39284871	     -6.17152958	    -20.86200162	     31.13268662	     -1.48616501	      8.72216710	     66.94328662	     50.86085332	      0.00000000	      0.00000000	     40.81456575	     -9.24494998	      7.24440650	     96.07759893	     50.05483413	      0.00000000	      0.00000000
      2.55500000	    -30.54625633	      0.34479362	     25.48745370	      0.44276202	      1.04116467	     -0.17892542	      0.00000000	      0.50000000	      0.00000000	      0.25000000	     40.92626425	    -12.23468544	    -13.43583363	     71.57067293	      1.24914389	    -10.81074298	    -14.11761906	      0.00000000	      0.00000000	     72.24505728	      4.60809511	      4.98840546	     78.46595646	      1.36948929	     28.59290942	     12.80564506	      0.00000000	      0.00000000	    -49.26585683	     -6.26725242	    -20.51132921	     31.26260787	     -1.61097530	      9.26509296	     66.83286650	     50.92982309	      0.00000000	      0.00000000	     40.12497437	     -9.29648883	      6.69801814	     96.70685552	     50.09985237	      0.00000000	      0.00000000
      2.56000000	    -30.36099790	      0.14197271	     24.92967145	      0.44357383	      1.04034655	     -0.17914386	      0.00000000	      0.50000000	      0.00000000	      0.25000000	     41.05583000	    -11.99179825	    -13.53223016	     73.08165199	      1.27551545	     -8.75296878	    -13.05664479	      0.00000000	      0.00000000	     71.55980050	      4.13376808	      5.10837703	     77.33984653	      1.34983496	     28.27057544	     12.75395475	      0.00000000	      0.00000000	    -49.20549689	     -6.14126089	    -21.07805127	     32.26794754	     -1.70494932	     11.51065125	     65.72714267	     51.14752777	      0.00000000	      0.00000000	     38.63701696	    -10.01255523	      5.21271119	     98.65320402	     50.20581810	      0.00000000	      0.00000000
      2.56500000	    -30.15080274	     -0.11439761	     24.26710095	      0.44444489	      1.03961292	     -0.17912576	      0.00000000	      0.50000000	      0.00000000	      0.25000000	     41.17109097	    -11.54190277	    -13.50524289	     74.49947385	      1.30026111	     -6.75626159	    -12.14896445	      0.00000000	      0.00000000	     70.89360064	      3.46093245	      5.19794755	     76.26804378	      1.33112848	     27.85234932	     12.91572219	      0.00000000	      0.00000000	    -49.16570701	     -6.19882406	    -20.24183474	     31.91135993	     -1.94730153	     11.24320372	     66.54259584	     50.13650768	      0.00000000	      0.00000000	     38.61419584	     -9.75602935	      5.32944348	     98.36784454	     49.71078810	      0.00000000	      0.00000000
